<svg width="17" height="17" viewBox="0 0 17 17" fill="none" xmlns="http://www.w3.org/2000/svg">
<g clip-path="url(#clip0_6063_50350)">
<path d="M13.7819 2.51305C12.2708 1.00209 10.2619 0.169922 8.125 0.169922C5.98813 0.169922 3.97915 1.00209 2.46813 2.51305C0.957165 4.02407 0.125 6.03305 0.125 8.16992C0.125 10.3068 0.957165 12.3158 2.46813 13.8268C3.97915 15.3378 5.98813 16.1699 8.125 16.1699C10.2619 16.1699 12.2708 15.3378 13.7819 13.8268C15.2928 12.3158 16.125 10.3068 16.125 8.16992C16.125 6.03305 15.2928 4.02407 13.7819 2.51305ZM8.125 15.1802C4.2595 15.1802 1.11469 12.0354 1.11469 8.16992C1.11469 4.30442 4.2595 1.15961 8.125 1.15961C11.9905 1.15961 15.1353 4.30442 15.1353 8.16992C15.1353 12.0354 11.9905 15.1802 8.125 15.1802Z" fill="#455E91"/>
<path d="M8.12461 11.551C9.99213 11.551 11.5061 10.037 11.5061 8.16953C11.5061 6.30201 9.99213 4.78809 8.12461 4.78809C6.25709 4.78809 4.74316 6.30201 4.74316 8.16953C4.74316 10.037 6.25709 11.551 8.12461 11.551Z" fill="#455E91"/>
</g>
<defs>
<clipPath id="clip0_6063_50350">
<rect width="16" height="16" fill="white" transform="translate(0.125 0.169922)"/>
</clipPath>
</defs>
</svg>
